# Blender 3.5.1
# www.blender.org
mtllib ground.mtl
o Cylinder
v 0.000000 3.067546 -2.586823
v 0.000000 3.067546 2.586823
v 0.195090 3.048331 -2.586823
v 0.195090 3.048331 2.586823
v 0.382683 2.991426 -2.586823
v 0.382683 2.991425 2.586823
v 0.555570 2.899016 -2.586823
v 0.555570 2.899015 2.586823
v 0.707107 2.774653 -2.586823
v 0.707107 2.774653 2.586823
v 0.831470 2.623116 -2.586823
v 0.831470 2.623116 2.586823
v 0.923880 2.450229 -2.586823
v 0.923880 2.450229 2.586823
v 0.980785 2.262636 -2.586823
v 0.980785 2.262636 2.586823
v 1.000000 2.067546 -2.586823
v 1.000000 2.067546 2.586823
v 0.980785 1.872456 -2.586823
v 0.980785 1.872455 2.586823
v 0.923880 1.684863 -2.586823
v 0.923880 1.684862 2.586823
v 0.831470 1.511976 -2.586823
v 0.831470 1.511976 2.586823
v 0.707107 1.360439 -2.586823
v 0.707107 1.360439 2.586823
v 0.555570 1.236076 -2.586823
v 0.555570 1.236076 2.586823
v 0.382683 1.143667 -2.586823
v 0.382683 1.143666 2.586823
v 0.195090 1.086761 -2.586823
v 0.195090 1.086761 2.586823
v 0.000000 1.067546 -2.586823
v 0.000000 1.067546 2.586823
v -0.195090 1.086761 -2.586823
v -0.195090 1.086761 2.586823
v -0.382683 1.143667 -2.586823
v -0.382683 1.143666 2.586823
v -0.555570 1.236076 -2.586823
v -0.555570 1.236076 2.586823
v -0.707107 1.360439 -2.586823
v -0.707107 1.360439 2.586823
v -0.831470 1.511976 -2.586823
v -0.831470 1.511976 2.586823
v -0.923880 1.684863 -2.586823
v -0.923880 1.684862 2.586823
v -0.980785 1.872456 -2.586823
v -0.980785 1.872455 2.586823
v -1.000000 2.067546 -2.586823
v -1.000000 2.067546 2.586823
v -0.980785 2.262636 -2.586823
v -0.980785 2.262636 2.586823
v -0.923880 2.450229 -2.586823
v -0.923880 2.450229 2.586823
v -0.831470 2.623116 -2.586823
v -0.831470 2.623116 2.586823
v -0.707107 2.774653 -2.586823
v -0.707107 2.774653 2.586823
v -0.555570 2.899016 -2.586823
v -0.555570 2.899015 2.586823
v -0.382683 2.991426 -2.586823
v -0.382683 2.991425 2.586823
v -0.195090 3.048331 -2.586823
v -0.195090 3.048331 2.586823
v 0.000000 3.087546 -2.586823
v 0.000000 3.087546 2.586823
v 0.198992 3.067947 -2.586823
v 0.198992 3.067947 2.586823
v 0.390337 3.009903 -2.586823
v 0.390337 3.009903 2.586823
v 0.566682 2.915645 -2.586823
v 0.566682 2.915645 2.586823
v 0.721249 2.788795 -2.586823
v 0.721249 2.788795 2.586823
v 0.848099 2.634228 -2.586823
v 0.848099 2.634227 2.586823
v 0.942357 2.457883 -2.586823
v 0.942357 2.457883 2.586823
v 1.000401 2.266538 -2.586823
v 1.000401 2.266538 2.586823
v 1.020000 2.067546 -2.586823
v 1.020000 2.067546 2.586823
v 1.000401 1.868554 -2.586823
v 1.000401 1.868554 2.586823
v 0.942357 1.677209 -2.586823
v 0.942357 1.677209 2.586823
v 0.848099 1.500864 -2.586823
v 0.848099 1.500864 2.586823
v 0.721249 1.346297 -2.586823
v 0.721249 1.346297 2.586823
v 0.566682 1.219447 -2.586823
v 0.566682 1.219447 2.586823
v 0.390337 1.125189 -2.586823
v 0.390337 1.125189 2.586823
v 0.198992 1.067145 -2.586823
v 0.198992 1.067145 2.586823
v 0.000000 1.047546 -2.586823
v 0.000000 1.047546 2.586823
v -0.198992 1.067145 -2.586823
v -0.198992 1.067145 2.586823
v -0.390337 1.125189 -2.586823
v -0.390337 1.125189 2.586823
v -0.566682 1.219447 -2.586823
v -0.566682 1.219447 2.586823
v -0.721249 1.346297 -2.586823
v -0.721249 1.346297 2.586823
v -0.848099 1.500864 -2.586823
v -0.848099 1.500864 2.586823
v -0.942357 1.677209 -2.586823
v -0.942357 1.677209 2.586823
v -1.000401 1.868554 -2.586823
v -1.000401 1.868554 2.586823
v -1.020000 2.067546 -2.586823
v -1.020000 2.067546 2.586823
v -1.000401 2.266538 -2.586823
v -1.000401 2.266538 2.586823
v -0.942357 2.457883 -2.586823
v -0.942357 2.457883 2.586823
v -0.848099 2.634228 -2.586823
v -0.848099 2.634227 2.586823
v -0.721249 2.788795 -2.586823
v -0.721249 2.788795 2.586823
v -0.566682 2.915645 -2.586823
v -0.566682 2.915645 2.586823
v -0.390337 3.009903 -2.586823
v -0.390337 3.009903 2.586823
v -0.198992 3.067947 -2.586823
v -0.198992 3.067947 2.586823
vn -0.0000 0.6836 0.7298
vn -0.0000 0.6836 -0.7298
vn 0.1334 0.6705 -0.7298
vn 0.1334 0.6705 0.7298
vn 0.2616 0.6316 -0.7298
vn 0.2616 0.6316 0.7298
vn 0.3798 0.5684 -0.7298
vn 0.3798 0.5684 0.7298
vn 0.4834 0.4834 -0.7298
vn 0.4834 0.4834 0.7298
vn 0.5684 0.3798 -0.7298
vn 0.5684 0.3798 0.7298
vn 0.6316 0.2616 -0.7299
vn 0.6316 0.2616 0.7299
vn 0.6705 0.1334 -0.7298
vn 0.6705 0.1334 0.7298
vn 0.6836 -0.0000 -0.7298
vn 0.6836 -0.0000 0.7298
vn 0.6705 -0.1334 -0.7298
vn 0.6705 -0.1334 0.7298
vn 0.6316 -0.2616 -0.7299
vn 0.6316 -0.2616 0.7298
vn 0.5684 -0.3798 -0.7298
vn 0.5684 -0.3798 0.7298
vn 0.4834 -0.4834 -0.7298
vn 0.4834 -0.4834 0.7298
vn 0.3798 -0.5684 -0.7298
vn 0.3798 -0.5684 0.7298
vn 0.2616 -0.6316 -0.7298
vn 0.2616 -0.6316 0.7298
vn 0.1334 -0.6705 -0.7298
vn 0.1334 -0.6705 0.7298
vn -0.0000 -0.6836 -0.7298
vn -0.0000 -0.6836 0.7298
vn -0.1334 -0.6705 -0.7298
vn -0.1334 -0.6705 0.7298
vn -0.2616 -0.6316 -0.7298
vn -0.2616 -0.6316 0.7298
vn -0.3798 -0.5684 -0.7298
vn -0.3798 -0.5684 0.7298
vn -0.4834 -0.4834 -0.7298
vn -0.4834 -0.4834 0.7298
vn -0.5684 -0.3798 -0.7298
vn -0.5684 -0.3798 0.7298
vn -0.6316 -0.2616 -0.7298
vn -0.6316 -0.2616 0.7298
vn -0.6705 -0.1334 -0.7298
vn -0.6705 -0.1334 0.7298
vn -0.6836 -0.0000 -0.7298
vn -0.6836 -0.0000 0.7298
vn -0.6705 0.1334 -0.7298
vn -0.6705 0.1334 0.7298
vn -0.6316 0.2616 -0.7299
vn -0.6316 0.2616 0.7299
vn -0.5684 0.3798 -0.7298
vn -0.5684 0.3798 0.7298
vn -0.4834 0.4834 -0.7298
vn -0.4834 0.4834 0.7298
vn -0.3798 0.5684 -0.7298
vn -0.3798 0.5684 0.7298
vn -0.2616 0.6316 -0.7298
vn -0.2616 0.6316 0.7298
vn -0.1334 0.6705 -0.7298
vn -0.1334 0.6705 0.7298
vn -0.1420 -0.7139 0.6857
vn -0.0000 -0.7279 0.6857
vn -0.0000 -0.7279 -0.6857
vn -0.1420 -0.7139 -0.6857
vn -0.2785 -0.6725 0.6857
vn -0.2785 -0.6725 -0.6857
vn -0.4044 -0.6052 0.6857
vn -0.4044 -0.6052 -0.6857
vn -0.5147 -0.5147 0.6857
vn -0.5147 -0.5147 -0.6857
vn -0.6052 -0.4044 0.6857
vn -0.6052 -0.4044 -0.6857
vn -0.6725 -0.2786 0.6857
vn -0.6725 -0.2786 -0.6857
vn -0.7139 -0.1420 0.6857
vn -0.7139 -0.1420 -0.6857
vn -0.7279 -0.0000 0.6857
vn -0.7279 -0.0000 -0.6857
vn -0.7139 0.1420 0.6857
vn -0.7139 0.1420 -0.6857
vn -0.6725 0.2786 0.6857
vn -0.6725 0.2785 -0.6857
vn -0.6052 0.4044 0.6857
vn -0.6052 0.4044 -0.6857
vn -0.5147 0.5147 0.6857
vn -0.5147 0.5147 -0.6857
vn -0.4044 0.6052 0.6857
vn -0.4044 0.6052 -0.6857
vn -0.2786 0.6725 0.6857
vn -0.2786 0.6725 -0.6857
vn -0.1420 0.7139 0.6857
vn -0.1420 0.7139 -0.6857
vn -0.0000 0.7279 0.6857
vn -0.0000 0.7279 -0.6857
vn 0.1420 0.7139 0.6857
vn 0.1420 0.7139 -0.6857
vn 0.2786 0.6725 0.6857
vn 0.2785 0.6725 -0.6857
vn 0.4044 0.6052 0.6857
vn 0.4044 0.6052 -0.6857
vn 0.5147 0.5147 0.6857
vn 0.5147 0.5147 -0.6857
vn 0.6052 0.4044 0.6857
vn 0.6052 0.4044 -0.6857
vn 0.6725 0.2786 0.6857
vn 0.6725 0.2786 -0.6857
vn 0.7139 0.1420 0.6857
vn 0.7139 0.1420 -0.6857
vn 0.7279 -0.0000 0.6857
vn 0.7279 -0.0000 -0.6857
vn 0.7139 -0.1420 0.6857
vn 0.7139 -0.1420 -0.6857
vn 0.6725 -0.2786 0.6857
vn 0.6725 -0.2786 -0.6857
vn 0.6052 -0.4044 0.6857
vn 0.6052 -0.4044 -0.6857
vn 0.5147 -0.5147 0.6857
vn 0.5147 -0.5147 -0.6857
vn 0.4044 -0.6052 0.6857
vn 0.4044 -0.6052 -0.6857
vn 0.2785 -0.6725 0.6857
vn 0.2785 -0.6725 -0.6857
vn 0.1420 -0.7139 0.6857
vn 0.1420 -0.7139 -0.6857
vt 0.500000 1.793411
vt 0.500000 -0.793411
vt 0.625000 1.793411
vt 0.625000 -0.793411
vt 0.750000 1.793411
vt 0.750000 -0.793411
vt 0.875000 1.793411
vt 0.875000 -0.793411
vt 1.000000 1.793411
vt 1.000000 -0.793411
vt 1.125000 1.793411
vt 1.125000 -0.793411
vt 1.250000 1.793411
vt 1.250000 -0.793411
vt 1.375000 1.793411
vt 1.375000 -0.793411
vt 1.500000 1.793411
vt 1.500000 -0.793411
vt 1.625000 1.793411
vt 1.625000 -0.793411
vt 1.750000 1.793411
vt 1.750000 -0.793411
vt 1.875000 1.793411
vt 1.875000 -0.793411
vt 2.000000 1.793411
vt 2.000000 -0.793411
vt 2.125000 1.793411
vt 2.125000 -0.793411
vt 2.250000 1.793411
vt 2.250000 -0.793411
vt 2.375000 1.793411
vt 2.375000 -0.793411
vt 2.500000 1.793411
vt -1.500000 1.793411
vt 2.500000 -0.793411
vt -1.500000 -0.793411
vt -1.375000 1.793411
vt -1.375000 -0.793411
vt -1.250000 1.793411
vt -1.250000 -0.793411
vt -1.125000 1.793411
vt -1.125000 -0.793411
vt -1.000000 1.793411
vt -1.000000 -0.793411
vt -0.875000 1.793411
vt -0.875000 -0.793411
vt -0.750000 1.793411
vt -0.750000 -0.793411
vt -0.625000 1.793411
vt -0.625000 -0.793411
vt -0.500000 1.793411
vt -0.500000 -0.793411
vt -0.375000 1.793411
vt -0.375000 -0.793411
vt -0.250000 1.793411
vt -0.250000 -0.793411
vt -0.125000 1.793411
vt -0.125000 -0.793411
vt 0.000000 1.793411
vt -0.000000 -0.793411
vt 0.125000 1.793411
vt 0.125000 -0.793411
vt 0.250000 1.793411
vt 0.250000 -0.793411
vt 0.375000 1.793411
vt 0.375000 -0.793411
vt 0.500000 1.793411
vt 0.500000 -0.793411
vt 0.625000 1.793411
vt 0.625000 -0.793411
vt 0.750000 1.793411
vt 0.750000 -0.793411
vt 0.875000 1.793411
vt 0.875000 -0.793411
vt 1.000000 1.793411
vt 1.000000 -0.793411
vt 1.125000 1.793411
vt 1.125000 -0.793411
vt 1.250000 1.793411
vt 1.250000 -0.793411
vt 1.375000 1.793411
vt 1.375000 -0.793411
vt 1.500000 1.793411
vt 1.500000 -0.793411
vt 1.625000 1.793411
vt 1.625000 -0.793411
vt 1.750000 1.793411
vt 1.750000 -0.793411
vt 1.875000 1.793411
vt 1.875000 -0.793411
vt 2.000000 1.793411
vt 2.000000 -0.793411
vt 2.125000 1.793411
vt 2.125000 -0.793411
vt 2.250000 1.793411
vt 2.250000 -0.793411
vt 2.375000 1.793411
vt 2.375000 -0.793411
vt 2.500000 1.793411
vt -1.500000 1.793411
vt 2.500000 -0.793411
vt -1.500000 -0.793411
vt -1.375000 1.793411
vt -1.375000 -0.793411
vt -1.250000 1.793411
vt -1.250000 -0.793411
vt -1.125000 1.793411
vt -1.125000 -0.793411
vt -1.000000 1.793411
vt -1.000000 -0.793411
vt -0.875000 1.793411
vt -0.875000 -0.793411
vt -0.750000 1.793411
vt -0.750000 -0.793411
vt -0.625000 1.793411
vt -0.625000 -0.793411
vt -0.500000 1.793411
vt -0.500000 -0.793411
vt -0.375000 1.793411
vt -0.375000 -0.793411
vt -0.250000 1.793411
vt -0.250000 -0.793411
vt -0.125000 1.793411
vt -0.125000 -0.793411
vt 0.000000 1.793411
vt -0.000000 -0.793411
vt 0.125000 1.793411
vt 0.125000 -0.793411
vt 0.250000 1.793411
vt 0.250000 -0.793411
vt 0.375000 1.793411
vt 0.375000 -0.793411
s 1
usemtl Material.002
f 1/1/1 2/2/2 4/4/3 3/3/4
f 3/3/4 4/4/3 6/6/5 5/5/6
f 5/5/6 6/6/5 8/8/7 7/7/8
f 7/7/8 8/8/7 10/10/9 9/9/10
f 9/9/10 10/10/9 12/12/11 11/11/12
f 11/11/12 12/12/11 14/14/13 13/13/14
f 13/13/14 14/14/13 16/16/15 15/15/16
f 15/15/16 16/16/15 18/18/17 17/17/18
f 17/17/18 18/18/17 20/20/19 19/19/20
f 19/19/20 20/20/19 22/22/21 21/21/22
f 21/21/22 22/22/21 24/24/23 23/23/24
f 23/23/24 24/24/23 26/26/25 25/25/26
f 25/25/26 26/26/25 28/28/27 27/27/28
f 27/27/28 28/28/27 30/30/29 29/29/30
f 29/29/30 30/30/29 32/32/31 31/31/32
f 31/31/32 32/32/31 34/35/33 33/33/34
f 33/34/34 34/36/33 36/38/35 35/37/36
f 35/37/36 36/38/35 38/40/37 37/39/38
f 37/39/38 38/40/37 40/42/39 39/41/40
f 39/41/40 40/42/39 42/44/41 41/43/42
f 41/43/42 42/44/41 44/46/43 43/45/44
f 43/45/44 44/46/43 46/48/45 45/47/46
f 45/47/46 46/48/45 48/50/47 47/49/48
f 47/49/48 48/50/47 50/52/49 49/51/50
f 49/51/50 50/52/49 52/54/51 51/53/52
f 51/53/52 52/54/51 54/56/53 53/55/54
f 53/55/54 54/56/53 56/58/55 55/57/56
f 55/57/56 56/58/55 58/60/57 57/59/58
f 57/59/58 58/60/57 60/62/59 59/61/60
f 59/61/60 60/62/59 62/64/61 61/63/62
f 61/63/62 62/64/61 64/66/63 63/65/64
f 63/65/64 64/66/63 2/2/2 1/1/1
f 1/1/1 3/3/4 67/69/65 65/67/66
f 4/4/3 2/2/2 66/68/67 68/70/68
f 3/3/4 5/5/6 69/71/69 67/69/65
f 6/6/5 4/4/3 68/70/68 70/72/70
f 5/5/6 7/7/8 71/73/71 69/71/69
f 8/8/7 6/6/5 70/72/70 72/74/72
f 7/7/8 9/9/10 73/75/73 71/73/71
f 10/10/9 8/8/7 72/74/72 74/76/74
f 9/9/10 11/11/12 75/77/75 73/75/73
f 12/12/11 10/10/9 74/76/74 76/78/76
f 11/11/12 13/13/14 77/79/77 75/77/75
f 14/14/13 12/12/11 76/78/76 78/80/78
f 13/13/14 15/15/16 79/81/79 77/79/77
f 16/16/15 14/14/13 78/80/78 80/82/80
f 15/15/16 17/17/18 81/83/81 79/81/79
f 18/18/17 16/16/15 80/82/80 82/84/82
f 17/17/18 19/19/20 83/85/83 81/83/81
f 20/20/19 18/18/17 82/84/82 84/86/84
f 19/19/20 21/21/22 85/87/85 83/85/83
f 22/22/21 20/20/19 84/86/84 86/88/86
f 21/21/22 23/23/24 87/89/87 85/87/85
f 24/24/23 22/22/21 86/88/86 88/90/88
f 23/23/24 25/25/26 89/91/89 87/89/87
f 26/26/25 24/24/23 88/90/88 90/92/90
f 25/25/26 27/27/28 91/93/91 89/91/89
f 28/28/27 26/26/25 90/92/90 92/94/92
f 27/27/28 29/29/30 93/95/93 91/93/91
f 30/30/29 28/28/27 92/94/92 94/96/94
f 29/29/30 31/31/32 95/97/95 93/95/93
f 32/32/31 30/30/29 94/96/94 96/98/96
f 31/31/32 33/33/34 97/99/97 95/97/95
f 34/35/33 32/32/31 96/98/96 98/101/98
f 33/34/34 35/37/36 99/103/99 97/100/97
f 36/38/35 34/36/33 98/102/98 100/104/100
f 35/37/36 37/39/38 101/105/101 99/103/99
f 38/40/37 36/38/35 100/104/100 102/106/102
f 37/39/38 39/41/40 103/107/103 101/105/101
f 40/42/39 38/40/37 102/106/102 104/108/104
f 39/41/40 41/43/42 105/109/105 103/107/103
f 42/44/41 40/42/39 104/108/104 106/110/106
f 41/43/42 43/45/44 107/111/107 105/109/105
f 44/46/43 42/44/41 106/110/106 108/112/108
f 43/45/44 45/47/46 109/113/109 107/111/107
f 46/48/45 44/46/43 108/112/108 110/114/110
f 45/47/46 47/49/48 111/115/111 109/113/109
f 48/50/47 46/48/45 110/114/110 112/116/112
f 47/49/48 49/51/50 113/117/113 111/115/111
f 50/52/49 48/50/47 112/116/112 114/118/114
f 49/51/50 51/53/52 115/119/115 113/117/113
f 52/54/51 50/52/49 114/118/114 116/120/116
f 51/53/52 53/55/54 117/121/117 115/119/115
f 54/56/53 52/54/51 116/120/116 118/122/118
f 53/55/54 55/57/56 119/123/119 117/121/117
f 56/58/55 54/56/53 118/122/118 120/124/120
f 55/57/56 57/59/58 121/125/121 119/123/119
f 58/60/57 56/58/55 120/124/120 122/126/122
f 57/59/58 59/61/60 123/127/123 121/125/121
f 60/62/59 58/60/57 122/126/122 124/128/124
f 59/61/60 61/63/62 125/129/125 123/127/123
f 62/64/61 60/62/59 124/128/124 126/130/126
f 61/63/62 63/65/64 127/131/127 125/129/125
f 64/66/63 62/64/61 126/130/126 128/132/128
f 63/65/64 1/1/1 65/67/66 127/131/127
f 2/2/2 64/66/63 128/132/128 66/68/67
usemtl Material.004
f 65/67/66 67/69/65 68/70/68 66/68/67
f 67/69/65 69/71/69 70/72/70 68/70/68
f 69/71/69 71/73/71 72/74/72 70/72/70
f 71/73/71 73/75/73 74/76/74 72/74/72
f 73/75/73 75/77/75 76/78/76 74/76/74
f 75/77/75 77/79/77 78/80/78 76/78/76
f 77/79/77 79/81/79 80/82/80 78/80/78
f 79/81/79 81/83/81 82/84/82 80/82/80
f 81/83/81 83/85/83 84/86/84 82/84/82
f 83/85/83 85/87/85 86/88/86 84/86/84
f 85/87/85 87/89/87 88/90/88 86/88/86
f 87/89/87 89/91/89 90/92/90 88/90/88
f 89/91/89 91/93/91 92/94/92 90/92/90
f 91/93/91 93/95/93 94/96/94 92/94/92
f 93/95/93 95/97/95 96/98/96 94/96/94
f 95/97/95 97/99/97 98/101/98 96/98/96
f 97/100/97 99/103/99 100/104/100 98/102/98
f 99/103/99 101/105/101 102/106/102 100/104/100
f 101/105/101 103/107/103 104/108/104 102/106/102
f 103/107/103 105/109/105 106/110/106 104/108/104
f 105/109/105 107/111/107 108/112/108 106/110/106
f 107/111/107 109/113/109 110/114/110 108/112/108
f 109/113/109 111/115/111 112/116/112 110/114/110
f 111/115/111 113/117/113 114/118/114 112/116/112
f 113/117/113 115/119/115 116/120/116 114/118/114
f 115/119/115 117/121/117 118/122/118 116/120/116
f 117/121/117 119/123/119 120/124/120 118/122/118
f 119/123/119 121/125/121 122/126/122 120/124/120
f 121/125/121 123/127/123 124/128/124 122/126/122
f 123/127/123 125/129/125 126/130/126 124/128/124
f 125/129/125 127/131/127 128/132/128 126/130/126
f 127/131/127 65/67/66 66/68/67 128/132/128
